<svg width="93" height="88" viewBox="0 0 93 88" fill="none" xmlns="http://www.w3.org/2000/svg">
<path d="M50.5311 40.0853L66.461 47.6516C67.2784 48.0398 68.2576 47.6932 68.616 46.8623C72.339 38.2311 74.6489 26.0829 70.5169 16.7377C66.625 7.93539 57.0002 5.54412 53.5928 6.04436L47.3417 9.43715C49.7074 9.8721 54.4778 12.8299 54.6341 21.1813C54.7634 28.095 51.9867 34.174 49.8572 37.4935C49.2835 38.3876 49.5715 39.6295 50.5311 40.0853Z" fill="#2B80D7"/>
<mask id="mask0_757_4452" style="mask-type:alpha" maskUnits="userSpaceOnUse" x="47" y="5" width="26" height="43">
<path d="M50.5314 40.0864L66.4614 47.6528C67.2788 48.041 68.2579 47.6944 68.6163 46.8635C72.3394 38.2322 74.6493 26.084 70.5173 16.7388C66.6254 7.93655 57.0006 5.54528 53.5931 6.04552L47.342 9.43831C49.7077 9.87326 54.4782 12.831 54.6344 21.1825C54.7638 28.0961 51.9871 34.1751 49.8575 37.4946C49.2839 38.3887 49.5719 39.6307 50.5314 40.0864Z" fill="#DEA00D"/>
</mask>
<g mask="url(#mask0_757_4452)">
<g filter="url(#filter0_f_757_4452)">
<path d="M55.4088 42.6808C63.8018 36.621 75.0481 11.9264 69.4063 7.04382C67.3319 5.24857 48.399 5.67322 46.7075 4.33215L48.0861 6.38849C48.0861 6.38849 53.6291 13.3452 53.2663 24.2697C53.0435 30.9788 50.6377 37.9146 49.1428 41.3052C48.8984 41.8595 37.7925 36.3685 37.5838 36.7944C36.9905 38.0054 47.8817 43.4112 47.8817 43.4112L54.8579 42.8761C55.0586 42.8607 55.2456 42.7986 55.4088 42.6808Z" fill="url(#paint0_linear_757_4452)"/>
</g>
<g filter="url(#filter1_f_757_4452)">
<path d="M68.8089 49.2774C77.0169 43.0885 84.6346 24.7101 78.9059 14.4408C77.5685 12.0433 67.5538 5.18274 65.8623 3.84167L65.3366 10.6753C65.3366 10.6753 71.5177 16.6424 71.1542 27.5877C70.8692 36.17 68.4527 42.7129 67.4226 45.1381C67.1739 45.7238 66.5072 45.9808 65.9175 45.7418C63.1343 44.6138 55.7593 41.5654 56.0175 41.0383C55.4242 42.2494 66.2149 48.5875 66.2149 48.5875L67.6284 49.3507C68.0065 49.5549 68.4657 49.5361 68.8089 49.2774Z" fill="url(#paint1_linear_757_4452)"/>
</g>
<g opacity="0.8" filter="url(#filter2_f_757_4452)">
<rect width="20.7247" height="17.3755" rx="3.27252" transform="matrix(0.949793 0.312879 -0.31171 0.950177 48.3481 25.8188)" fill="#13497E"/>
</g>
<g opacity="0.7" filter="url(#filter3_f_757_4452)">
<path d="M49.9783 36.0283C56.6341 31.3699 57.6508 16.5226 51.8898 10.7932C50.4046 9.31622 48.1882 7.73067 46.7588 6.742L47.9238 8.25799C47.9238 8.25799 52.6081 13.3867 52.3015 21.4405C52.1132 26.3866 50.0801 31.4998 48.8168 33.9995C48.6103 34.4081 39.2249 30.36 39.0486 30.674C38.5472 31.5668 47.751 35.552 47.751 35.552L48.9132 36.0995C49.2587 36.2623 49.6654 36.2472 49.9783 36.0283Z" fill="#2B80D7"/>
</g>
</g>
<path d="M62.2678 33.5506L47.6487 28.249C47.1946 28.0843 46.6984 28.3452 46.5581 28.8075C45.5421 32.1539 42.8769 38.1952 37.7011 40.4589C30.8944 43.4359 28.6549 36.7755 31.65 45.1922C34.6451 53.6089 44.5419 56.023 53.5923 50.8686C60.154 47.1316 62.6837 39.5039 63.2941 35.193C63.3963 34.4716 62.9528 33.799 62.2678 33.5506Z" fill="url(#paint2_linear_757_4452)"/>
<mask id="mask1_757_4452" style="mask-type:alpha" maskUnits="userSpaceOnUse" x="30" y="28" width="34" height="26">
<path d="M62.2676 33.5519L47.6485 28.2503C47.1943 28.0856 46.6982 28.3465 46.5578 28.8087C45.5418 32.1552 42.8767 38.1964 37.7008 40.4602C30.8942 43.4372 28.6546 36.7768 31.6497 45.1935C34.6448 53.6102 44.5417 56.0243 53.592 50.8699C60.1538 47.1328 62.6834 39.5052 63.2939 35.1943C63.3961 34.4729 62.9526 33.8003 62.2676 33.5519Z" fill="url(#paint3_radial_757_4452)"/>
</mask>
<g mask="url(#mask1_757_4452)">
<g filter="url(#filter4_f_757_4452)">
<path d="M39.4559 55.8275C53.6466 55.8275 59.5825 30.1672 57.9303 25.8103C57.8414 25.5758 57.6253 25.4272 57.386 25.352L31.0222 17.0657L47.065 23.6952C47.2422 23.7684 47.3446 23.9522 47.3063 24.14C46.9976 25.6518 45.4837 32.1862 41.6492 36.3328C37.2905 41.0462 28.288 42.1038 24.5745 41.2249C22.597 41.2218 21.4807 40.5439 21.4807 40.5439C25.9776 43.4717 32.4356 55.8275 39.4559 55.8275Z" fill="url(#paint4_linear_757_4452)"/>
</g>
<g opacity="0.4" filter="url(#filter5_f_757_4452)">
<path d="M41.0904 39.6308C46.8565 35.7161 51.157 20.8874 50.0074 16.7571C49.9037 16.3846 49.5438 16.1804 49.1575 16.1631L33.7117 15.4716L47.1568 22.0949C47.316 22.1733 47.4068 22.341 47.3771 22.516C47.1301 23.9694 45.8648 30.5642 42.6264 34.7387C38.97 39.4522 31.4181 40.5097 28.3029 39.6308C26.644 39.6278 25.7876 40.3009 25.7876 40.3009C29.5599 43.2287 35.9705 43.1069 41.0904 39.6308Z" fill="#3EBADD"/>
</g>
<g filter="url(#filter6_f_757_4452)">
<path d="M54.0446 52.1335C60.9882 48.1789 67.0898 32.3043 65.6484 28.2901C65.539 27.9853 65.2386 27.8202 64.9171 27.7813L46.5219 25.5569L46.1042 28.261L60.6324 33.9454C61.1075 34.1313 61.4143 34.5903 61.3519 35.0967C61.122 36.961 60.1384 41.6517 55.9354 46.4443C50.516 52.624 42.6811 52.3313 38.9676 51.4524C36.9901 51.4494 36.5034 51.4524 36.5034 51.4524C40.735 54.4657 47.9412 55.6095 54.0446 52.1335Z" fill="url(#paint5_linear_757_4452)"/>
</g>
</g>
<path d="M40.1804 26.203C35.7528 34.5504 31.4684 51.6436 45.0116 53.5358C39.7153 53.944 27.6783 51.2183 22.209 38.2736C15.3723 22.0926 28.7859 2.64935 43.7614 0.887714C58.4016 -0.834491 65.9479 7.17104 70.2935 16.2478C70.4051 16.4637 70.5029 16.673 70.587 16.8729C70.4908 16.664 70.393 16.4557 70.2935 16.2478C68.6214 13.0118 63.864 8.29317 55.8069 11.327C49.9787 13.5216 43.5866 19.7811 40.1804 26.203Z" fill="#2CBBF9"/>
<mask id="mask2_757_4452" style="mask-type:alpha" maskUnits="userSpaceOnUse" x="20" y="0" width="51" height="54">
<path d="M40.1802 26.2023C35.7527 34.5497 31.4683 51.6429 45.0114 53.535C39.7151 53.9433 27.6781 51.2176 22.2088 38.2728C15.3722 22.0919 28.7858 2.64862 43.7612 0.886982C58.4015 -0.835223 65.9478 7.17031 70.2934 16.2471C70.405 16.463 70.5028 16.6722 70.5869 16.8722C70.4907 16.6633 70.3929 16.4549 70.2934 16.2471C68.6212 13.0111 63.8638 8.29244 55.8068 11.3263C49.9786 13.5208 43.5865 19.7803 40.1802 26.2023Z" fill="#00CCC0"/>
</mask>
<g mask="url(#mask2_757_4452)">
<g filter="url(#filter7_f_757_4452)">
<path d="M8.98035 37.9134C14.4497 50.8582 39.3262 54.7347 44.6225 54.3264C44.8883 51.8153 37.2891 46.3632 37.5542 40.2965C37.5542 40.2965 27.864 40.6075 26.3843 26.2015C24.9047 11.7955 33.1509 4.54553 33.1509 4.54553C23.3195 9.40194 6.02161 30.9106 8.98035 37.9134Z" fill="url(#paint6_linear_757_4452)"/>
<path d="M70.5865 16.8739C96.1151 -3.77362 52.9275 -8.54001 37.9521 -6.77837C31.718 -6.04503 15.319 10.4711 21.7742 17.5786C21.7742 17.5786 28.4685 10.1475 37.9521 8.78991C47.4356 7.4323 51.8272 14.2828 51.8272 14.2828C52.9827 13.5726 56.0209 13.377 57.1598 12.9482C65.7543 9.71199 70.1664 15.9868 70.5865 16.8739Z" fill="url(#paint7_linear_757_4452)"/>
</g>
<g filter="url(#filter8_f_757_4452)">
<path d="M22.8326 39.9406C7.59082 35.1174 14.9266 2.36052 30.2186 -2.32769C43.9775 -6.54589 45.1113 0.0820775 47.5315 0.485893C47.8457 0.476166 48.016 0.482404 48.016 0.482404C47.8468 0.512088 47.6865 0.511756 47.5315 0.485893C45.7134 0.542179 39.0775 1.13304 32.7492 6.56054C23.2315 14.7234 19.3994 27.7734 22.8326 39.9406Z" fill="#56E5FF"/>
</g>
<g filter="url(#filter9_f_757_4452)">
<path d="M47.4787 53.5083C43.2432 58.2859 25.9063 52.4765 20.437 39.5317C19.4523 37.2011 20.5229 30.0511 20.4518 27.2723C20.4394 27.0638 20.437 26.9522 20.437 26.9522C20.444 27.0511 20.4489 27.158 20.4518 27.2723C20.5438 28.8196 21.1864 35.7047 25.4851 41.9269C30.3631 48.9874 40.3826 51.7528 40.3826 51.7528C41.69 52.6847 45.3832 53.2155 47.4787 53.5083Z" fill="#FDC7C7"/>
</g>
<mask id="mask3_757_4452" style="mask-type:alpha" maskUnits="userSpaceOnUse" x="12" y="25" width="34" height="34">
<rect width="34.7954" height="12.2168" transform="matrix(0.695561 0.718467 -0.717024 0.697049 21.6891 25.1867)" fill="url(#paint8_linear_757_4452)"/>
</mask>
<g mask="url(#mask3_757_4452)">
<path d="M47.4801 53.5078C43.2446 58.2854 25.9076 52.476 20.4383 39.5312C19.4536 37.2006 20.5243 30.0506 20.4531 27.2718C20.4407 27.0633 20.4383 26.9517 20.4383 26.9517C20.4453 27.0506 20.4502 27.1575 20.4531 27.2718C20.5451 28.8191 21.1877 35.7042 25.4865 41.9264C30.3644 48.9869 40.3839 51.7523 40.3839 51.7523C41.6913 52.6842 45.3845 53.215 47.4801 53.5078Z" fill="#FDC7C7"/>
</g>
<g filter="url(#filter10_f_757_4452)">
<path d="M71.6687 17.5533C72.7841 9.4317 58.3233 -3.15398 43.3479 -1.39234C37.9298 -0.754981 33.1291 4.47608 29.005 8.75053C29.005 8.75053 38.3646 0.416104 49.7588 2.01947C61.153 3.62283 66.2441 12.0769 66.2441 12.0769C68.6234 13.4712 69.709 17.7556 71.6687 17.5533Z" fill="#EFC7FD"/>
</g>
<mask id="mask4_757_4452" style="mask-type:alpha" maskUnits="userSpaceOnUse" x="27" y="-3" width="44" height="20">
<rect width="41.3283" height="13.906" transform="matrix(0.989084 0.147354 -0.146757 0.989173 29.2886 -2.93744)" fill="url(#paint9_linear_757_4452)"/>
</mask>
<g mask="url(#mask4_757_4452)">
<path d="M71.6687 17.5552C72.7841 9.43359 58.3233 -3.15208 43.3479 -1.39045C37.9298 -0.753089 33.1291 4.47797 29.005 8.75243C29.005 8.75243 38.3646 0.417996 49.7588 2.02136C61.153 3.62472 66.2441 12.0788 66.2441 12.0788C68.6234 13.473 69.709 17.7575 71.6687 17.5552Z" fill="#EFC7FD"/>
</g>
<g filter="url(#filter11_f_757_4452)">
<path d="M54.3353 9.28636C38.9946 14.134 25.4056 42.4285 38.6097 53.042C51.8138 63.6555 67.2498 43.4944 75.0157 27.165C71.1733 16.1909 69.676 4.43869 54.3353 9.28636Z" fill="url(#paint10_linear_757_4452)"/>
</g>
<mask id="mask5_757_4452" style="mask-type:alpha" maskUnits="userSpaceOnUse" x="13" y="-8" width="67" height="70">
<rect width="44.7466" height="53.4311" transform="matrix(0.85506 0.518529 -0.516958 0.856011 40.9167 -7.10339)" fill="url(#paint11_linear_757_4452)"/>
</mask>
<g mask="url(#mask5_757_4452)">
<path d="M54.3338 9.28563C38.9931 14.1333 25.4042 42.4278 38.6082 53.0413C51.8123 63.6547 67.2483 43.4937 75.0142 27.1642C71.1719 16.1902 69.6745 4.43796 54.3338 9.28563Z" fill="url(#paint12_linear_757_4452)"/>
</g>
</g>
<path d="M18.7892 66.833C18.849 66.6293 19.0359 66.4894 19.2482 66.4894H22.5652C22.8294 66.4894 23.0436 66.7035 23.0436 66.9678V86.6307C23.0436 86.8949 22.8294 87.1091 22.5652 87.1091H19.0678C18.8507 87.1091 18.6608 86.9629 18.6053 86.7531L18.2042 85.238C16.4513 86.8036 14.165 87.72 11.5357 87.72C5.3626 87.72 0.751831 83.0233 0.751831 76.7992C0.751831 70.5751 5.3626 65.9166 11.5357 65.9166C14.2031 65.9166 16.5275 66.8712 18.3185 68.4368L18.7892 66.833ZM11.993 82.4505C15.2319 82.4505 17.5945 80.0449 17.5945 76.7992C17.5945 73.5535 15.2319 71.1479 11.993 71.1479C8.75399 71.1479 6.39145 73.5535 6.39145 76.7992C6.39145 80.0067 8.75399 82.4505 11.993 82.4505Z" fill="#373A4A"/>
<path d="M41.0465 66.8064C41.1146 66.6162 41.2948 66.4894 41.4968 66.4894H46.2104C46.548 66.4894 46.7794 66.8297 46.6552 67.1437L38.879 86.8066C38.8069 86.9891 38.6305 87.1091 38.4342 87.1091H33.9371C33.7425 87.1091 33.5672 86.9911 33.4939 86.8108L25.4997 67.1479C25.3718 66.8333 25.6033 66.4894 25.9429 66.4894H30.8414C31.0425 66.4894 31.2222 66.6152 31.291 66.8042L36.2064 80.3122L41.0465 66.8064Z" fill="#373A4A"/>
<path d="M65.1838 66.4894H68.8589C69.1231 66.4894 69.3373 66.7035 69.3373 66.9678V86.6307C69.3373 86.8949 69.1231 87.1091 68.8589 87.1091H65.3615C65.1445 87.1091 64.9546 86.9629 64.899 86.7531L64.4979 85.238C62.7451 86.8036 60.4587 87.72 57.8295 87.72C51.6564 87.72 47.0456 83.0233 47.0456 76.7992C47.0456 70.5751 51.6564 65.9166 57.8295 65.9166C60.4968 65.9166 62.8213 66.8712 64.6122 68.4368L65.1838 66.4894ZM58.2867 82.4505C61.5257 82.4505 63.8882 80.0449 63.8882 76.7992C63.8882 73.5535 61.5257 71.1479 58.2867 71.1479C55.0478 71.1479 52.6852 73.5535 52.6852 76.7992C52.6852 80.0067 55.0478 82.4505 58.2867 82.4505Z" fill="#373A4A"/>
<path d="M76.6965 64.4694C75.2087 64.4694 74.0026 63.2633 74.0026 61.7755C74.0026 60.2877 75.2087 59.0816 76.6965 59.0816H76.834C78.3218 59.0816 79.5279 60.2877 79.5279 61.7755C79.5279 63.2633 78.3218 64.4694 76.834 64.4694H76.6965ZM74.4429 87.1091C74.1787 87.1091 73.9645 86.8949 73.9645 86.6307V66.9678C73.9645 66.7035 74.1787 66.4894 74.4429 66.4894H79.0495C79.3137 66.4894 79.5279 66.7035 79.5279 66.9678V86.6307C79.5279 86.8949 79.3137 87.1091 79.0495 87.1091H74.4429Z" fill="#373A4A"/>
<path d="M89.669 80.3377C89.669 80.8236 89.7689 81.1666 89.9685 81.3667C90.1967 81.5382 90.5533 81.624 91.0382 81.624C91.2799 81.624 91.5052 81.624 91.834 81.624C92.1627 81.624 92.3646 81.9194 92.3646 82.1899V86.4696L92.3647 86.4892C92.3652 86.8011 92.1266 87.0779 91.7475 87.0779C91.0273 87.0779 90.4299 87.1091 89.669 87.1091L88.6411 87.109C87.1863 87.109 86.0596 86.7231 85.2609 85.9513C84.4907 85.1795 84.1056 83.8075 84.1056 81.8352V59.56C84.1056 59.2958 84.3198 59.0816 84.584 59.0816L89.1906 59.0815C89.4548 59.0815 89.669 59.2957 89.669 59.5599V80.3377Z" fill="#373A4A"/>
<defs>
<filter id="filter0_f_757_4452" x="31.4244" y="-1.80383" width="45.6404" height="51.351" filterUnits="userSpaceOnUse" color-interpolation-filters="sRGB">
<feFlood flood-opacity="0" result="BackgroundImageFix"/>
<feBlend mode="normal" in="SourceGraphic" in2="BackgroundImageFix" result="shape"/>
<feGaussianBlur stdDeviation="3.06799" result="effect1_foregroundBlur_757_4452"/>
</filter>
<filter id="filter1_f_757_4452" x="55.7894" y="3.63714" width="25.316" height="46.0568" filterUnits="userSpaceOnUse" color-interpolation-filters="sRGB">
<feFlood flood-opacity="0" result="BackgroundImageFix"/>
<feBlend mode="normal" in="SourceGraphic" in2="BackgroundImageFix" result="shape"/>
<feGaussianBlur stdDeviation="0.102266" result="effect1_foregroundBlur_757_4452"/>
</filter>
<filter id="filter2_f_757_4452" x="38.0612" y="20.9507" width="34.842" height="32.7304" filterUnits="userSpaceOnUse" color-interpolation-filters="sRGB">
<feFlood flood-opacity="0" result="BackgroundImageFix"/>
<feBlend mode="normal" in="SourceGraphic" in2="BackgroundImageFix" result="shape"/>
<feGaussianBlur stdDeviation="2.86346" result="effect1_foregroundBlur_757_4452"/>
</filter>
<filter id="filter3_f_757_4452" x="38.2107" y="5.92387" width="18.2624" height="31.1031" filterUnits="userSpaceOnUse" color-interpolation-filters="sRGB">
<feFlood flood-opacity="0" result="BackgroundImageFix"/>
<feBlend mode="normal" in="SourceGraphic" in2="BackgroundImageFix" result="shape"/>
<feGaussianBlur stdDeviation="0.409065" result="effect1_foregroundBlur_757_4452"/>
</filter>
<filter id="filter4_f_757_4452" x="17.3901" y="12.975" width="44.8998" height="46.9432" filterUnits="userSpaceOnUse" color-interpolation-filters="sRGB">
<feFlood flood-opacity="0" result="BackgroundImageFix"/>
<feBlend mode="normal" in="SourceGraphic" in2="BackgroundImageFix" result="shape"/>
<feGaussianBlur stdDeviation="2.04533" result="effect1_foregroundBlur_757_4452"/>
</filter>
<filter id="filter5_f_757_4452" x="24.9695" y="14.6535" width="26.0429" height="28.5411" filterUnits="userSpaceOnUse" color-interpolation-filters="sRGB">
<feFlood flood-opacity="0" result="BackgroundImageFix"/>
<feBlend mode="normal" in="SourceGraphic" in2="BackgroundImageFix" result="shape"/>
<feGaussianBlur stdDeviation="0.409065" result="effect1_foregroundBlur_757_4452"/>
</filter>
<filter id="filter6_f_757_4452" x="36.2989" y="25.3524" width="29.7669" height="29.1258" filterUnits="userSpaceOnUse" color-interpolation-filters="sRGB">
<feFlood flood-opacity="0" result="BackgroundImageFix"/>
<feBlend mode="normal" in="SourceGraphic" in2="BackgroundImageFix" result="shape"/>
<feGaussianBlur stdDeviation="0.102266" result="effect1_foregroundBlur_757_4452"/>
</filter>
<filter id="filter7_f_757_4452" x="2.09948" y="-13.6598" width="82.9354" height="74.5599" filterUnits="userSpaceOnUse" color-interpolation-filters="sRGB">
<feFlood flood-opacity="0" result="BackgroundImageFix"/>
<feBlend mode="normal" in="SourceGraphic" in2="BackgroundImageFix" result="shape"/>
<feGaussianBlur stdDeviation="3.27252" result="effect1_foregroundBlur_757_4452"/>
</filter>
<filter id="filter8_f_757_4452" x="13.6155" y="-4.54469" width="35.2187" height="45.3034" filterUnits="userSpaceOnUse" color-interpolation-filters="sRGB">
<feFlood flood-opacity="0" result="BackgroundImageFix"/>
<feBlend mode="normal" in="SourceGraphic" in2="BackgroundImageFix" result="shape"/>
<feGaussianBlur stdDeviation="0.409065" result="effect1_foregroundBlur_757_4452"/>
</filter>
<filter id="filter9_f_757_4452" x="19.2002" y="26.1341" width="29.0967" height="29.8513" filterUnits="userSpaceOnUse" color-interpolation-filters="sRGB">
<feFlood flood-opacity="0" result="BackgroundImageFix"/>
<feBlend mode="normal" in="SourceGraphic" in2="BackgroundImageFix" result="shape"/>
<feGaussianBlur stdDeviation="0.409065" result="effect1_foregroundBlur_757_4452"/>
</filter>
<filter id="filter10_f_757_4452" x="28.1869" y="-2.37734" width="44.3606" height="20.7556" filterUnits="userSpaceOnUse" color-interpolation-filters="sRGB">
<feFlood flood-opacity="0" result="BackgroundImageFix"/>
<feBlend mode="normal" in="SourceGraphic" in2="BackgroundImageFix" result="shape"/>
<feGaussianBlur stdDeviation="0.409065" result="effect1_foregroundBlur_757_4452"/>
</filter>
<filter id="filter11_f_757_4452" x="33.0648" y="7.95861" width="42.1554" height="48.2429" filterUnits="userSpaceOnUse" color-interpolation-filters="sRGB">
<feFlood flood-opacity="0" result="BackgroundImageFix"/>
<feBlend mode="normal" in="SourceGraphic" in2="BackgroundImageFix" result="shape"/>
<feGaussianBlur stdDeviation="0.102266" result="effect1_foregroundBlur_757_4452"/>
</filter>
<linearGradient id="paint0_linear_757_4452" x1="58.4442" y1="10.9361" x2="58.1842" y2="43.6311" gradientUnits="userSpaceOnUse">
<stop stop-color="#13497E"/>
<stop offset="0.640419" stop-color="#2B80D7"/>
</linearGradient>
<linearGradient id="paint1_linear_757_4452" x1="68.4473" y1="13.3398" x2="68.4598" y2="47.3087" gradientUnits="userSpaceOnUse">
<stop stop-color="#E2C7FE"/>
<stop offset="0.450702" stop-color="#77B8FD"/>
</linearGradient>
<linearGradient id="paint2_linear_757_4452" x1="54.8902" y1="22.0673" x2="37.3459" y2="51.5296" gradientUnits="userSpaceOnUse">
<stop stop-color="#269EBF"/>
<stop offset="1" stop-color="#3EBADD"/>
</linearGradient>
<radialGradient id="paint3_radial_757_4452" cx="0" cy="0" r="1" gradientUnits="userSpaceOnUse" gradientTransform="translate(57.2755 31.9251) rotate(139.651) scale(37.1543 27.3867)">
<stop offset="0.411461" stop-color="#FF7360"/>
<stop offset="1" stop-color="#630513"/>
</radialGradient>
<linearGradient id="paint4_linear_757_4452" x1="51.3433" y1="29.7265" x2="36.9182" y2="50.2718" gradientUnits="userSpaceOnUse">
<stop stop-color="#33B6D2"/>
<stop offset="0.142991" stop-color="#5BD8FF"/>
<stop offset="1" stop-color="#228AA7"/>
</linearGradient>
<linearGradient id="paint5_linear_757_4452" x1="56.0486" y1="31.9894" x2="43.6692" y2="52.5431" gradientUnits="userSpaceOnUse">
<stop offset="0.635417" stop-color="#68DEFF"/>
<stop offset="1" stop-color="#F3C8CB"/>
</linearGradient>
<linearGradient id="paint6_linear_757_4452" x1="22.3281" y1="18.0892" x2="35.9776" y2="51.7993" gradientUnits="userSpaceOnUse">
<stop offset="0.661495" stop-color="#88FFF8"/>
<stop offset="1" stop-color="#176781"/>
</linearGradient>
<linearGradient id="paint7_linear_757_4452" x1="29.5546" y1="20.1695" x2="67.3701" y2="4.52313" gradientUnits="userSpaceOnUse">
<stop offset="0.731633" stop-color="#4D89FD"/>
<stop offset="1" stop-color="#033883"/>
</linearGradient>
<linearGradient id="paint8_linear_757_4452" x1="33.2283" y1="5.94502" x2="14.1195" y2="9.31137" gradientUnits="userSpaceOnUse">
<stop stop-color="#D9D9D9"/>
<stop offset="0.658857" stop-color="#D9D9D9" stop-opacity="0"/>
</linearGradient>
<linearGradient id="paint9_linear_757_4452" x1="41.3006" y1="10.4685" x2="21.8965" y2="1.45806" gradientUnits="userSpaceOnUse">
<stop stop-color="#D9D9D9"/>
<stop offset="1" stop-color="#D9D9D9" stop-opacity="0"/>
</linearGradient>
<linearGradient id="paint10_linear_757_4452" x1="64.0883" y1="9.17221" x2="38.583" y2="52.2872" gradientUnits="userSpaceOnUse">
<stop stop-color="#EFC7FE"/>
<stop offset="0.286458" stop-color="#2CBBF9"/>
<stop offset="0.65625" stop-color="#2CBBF9"/>
<stop offset="1" stop-color="#FDC8C8"/>
</linearGradient>
<linearGradient id="paint11_linear_757_4452" x1="43.7762" y1="25.0233" x2="6.52447" y2="24.2371" gradientUnits="userSpaceOnUse">
<stop stop-color="#D9D9D9"/>
<stop offset="0.659264" stop-color="#D9D9D9" stop-opacity="0"/>
</linearGradient>
<linearGradient id="paint12_linear_757_4452" x1="64.0868" y1="9.17147" x2="38.5815" y2="52.2864" gradientUnits="userSpaceOnUse">
<stop stop-color="#EFC7FE"/>
<stop offset="0.317708" stop-color="#2CBBF9"/>
<stop offset="0.661458" stop-color="#2CBBF9"/>
<stop offset="1" stop-color="#FDC8C8"/>
</linearGradient>
</defs>
</svg>
